<?xml version="1.0" standalone="no"?>
<!DOCTYPE svg PUBLIC "-//W3C//DTD SVG 20010904//EN"
 "http://www.w3.org/TR/2001/REC-SVG-20010904/DTD/svg10.dtd">
<svg version="1.0" xmlns="http://www.w3.org/2000/svg"
 width="1051.000000pt" height="1051.000000pt" viewBox="0 0 1051.000000 1051.000000"
 preserveAspectRatio="xMidYMid meet">
<metadata>
Created by potrace 1.14, written by Peter Selinger 2001-2017
</metadata>
<g transform="translate(0.000000,1051.000000) scale(0.100000,-0.100000)"
fill="#000000" stroke="none">
<path d="M4938 10315 c-2 -2 -48 -6 -103 -10 -55 -3 -111 -8 -125 -10 -14 -2
-50 -7 -80 -10 -30 -3 -67 -8 -82 -11 -15 -3 -42 -7 -60 -9 -269 -29 -800
-172 -1108 -298 -14 -5 -29 -11 -35 -13 -26 -6 -322 -144 -422 -196 -297 -154
-641 -380 -862 -564 -365 -304 -628 -579 -883 -924 -413 -557 -709 -1195 -864
-1860 -20 -85 -38 -166 -41 -180 -2 -14 -6 -36 -9 -50 -2 -14 -7 -41 -10 -60
-3 -19 -7 -42 -9 -50 -3 -8 -7 -35 -10 -60 -3 -25 -7 -56 -10 -70 -2 -14 -7
-50 -10 -80 -3 -30 -8 -71 -10 -90 -13 -109 -16 -172 -9 -167 5 2 54 8 109 11
213 15 273 21 282 30 3 3 7 18 8 33 2 26 9 89 21 193 3 25 9 70 14 100 5 30
12 71 15 90 3 19 8 42 10 50 2 8 6 31 9 50 8 52 11 64 55 242 127 508 339 989
639 1443 37 55 70 105 74 110 5 6 31 42 60 80 47 64 149 194 173 221 6 6 35
40 65 75 114 131 285 305 415 420 27 24 56 50 63 57 23 21 203 164 262 208
323 240 729 466 1078 600 218 84 555 184 752 223 30 6 66 13 80 16 28 6 123
21 185 30 22 4 51 8 65 10 25 4 103 13 175 20 236 23 710 23 880 0 17 -2 73
-9 125 -15 157 -18 374 -56 495 -87 33 -8 68 -17 77 -18 139 -28 528 -159 723
-244 136 -60 411 -202 538 -278 347 -209 616 -420 907 -712 162 -162 200 -204
305 -331 20 -25 44 -54 53 -65 113 -135 328 -458 429 -645 84 -154 198 -393
209 -436 4 -13 10 -26 14 -29 4 -3 -22 -35 -59 -72 -112 -115 -169 -250 -173
-407 -2 -102 14 -169 64 -274 116 -245 395 -376 662 -311 195 47 357 196 426
389 30 84 37 237 14 325 -29 110 -97 223 -182 300 -91 82 -242 146 -359 154
-7 1 -13 6 -13 12 0 10 -9 31 -93 214 -99 216 -229 447 -370 660 -76 115 -249
350 -307 418 -193 225 -329 368 -485 510 -150 136 -173 157 -225 197 -25 19
-47 37 -50 40 -3 4 -50 40 -105 82 -436 329 -928 590 -1440 764 -88 29 -297
92 -327 98 -13 2 -60 14 -106 25 -75 20 -231 53 -307 65 -58 10 -160 26 -200
31 -22 3 -53 7 -70 10 -16 2 -66 7 -110 11 -44 3 -91 8 -105 11 -28 6 -696 14
-702 8z"/>
<path d="M4680 9100 c-52 -10 -114 -21 -138 -25 -24 -3 -66 -10 -95 -16 -29
-5 -69 -12 -91 -15 -131 -20 -170 -48 -170 -129 -1 -38 5 -50 32 -77 33 -34
73 -41 147 -25 99 21 103 21 111 -15 4 -18 8 -42 10 -53 1 -11 12 -78 23 -150
12 -71 24 -143 27 -160 2 -16 6 -41 9 -55 3 -14 7 -41 10 -60 3 -19 7 -46 10
-60 5 -28 11 -65 20 -125 14 -103 29 -134 73 -156 26 -13 42 -15 75 -7 102 22
122 71 92 218 -6 28 -14 71 -21 115 -3 17 -7 37 -9 45 -2 8 -6 32 -9 53 -4 21
-13 71 -21 110 -8 40 -17 88 -20 107 -3 19 -8 46 -10 60 -34 167 -37 193 -24
201 7 4 32 10 57 14 119 18 140 25 162 52 14 18 20 41 20 73 0 42 -4 52 -31
74 -37 32 -96 33 -239 6z"/>
<path d="M6682 8885 c-44 -31 -74 -107 -153 -386 -44 -156 -98 -347 -119 -424
-22 -77 -40 -158 -40 -180 0 -108 141 -190 238 -137 17 9 133 118 256 241
l224 223 -13 -68 c-8 -38 -35 -168 -60 -289 -58 -276 -63 -319 -36 -362 26
-41 87 -82 131 -87 73 -8 100 14 308 248 108 122 199 223 202 226 3 3 48 55
99 115 51 61 98 115 105 120 14 13 36 75 36 105 0 13 -15 37 -36 56 -29 28
-43 34 -79 34 -43 0 -89 -27 -122 -72 -40 -53 -413 -488 -413 -481 0 5 11 63
25 128 14 66 28 131 30 145 2 14 14 70 26 125 11 55 23 111 25 125 3 14 12 59
21 100 20 97 19 142 -3 174 -21 29 -39 36 -94 41 -73 6 -76 4 -477 -413 -67
-70 -124 -125 -126 -122 -2 3 11 52 30 110 19 58 35 110 37 115 1 6 7 26 13
45 92 283 133 422 133 451 0 44 -23 77 -66 95 -43 18 -74 18 -102 -1z"/>
<path d="M3401 8718 c-38 -10 -62 -32 -79 -70 -17 -42 0 -79 164 -353 80 -135
145 -247 143 -249 -2 -2 -47 14 -99 35 -695 277 -695 278 -760 244 -60 -31
-72 -110 -28 -181 14 -21 27 -44 29 -50 14 -38 458 -729 476 -741 52 -34 156
24 169 94 9 49 18 34 -263 465 -61 95 -72 118 -55 118 8 0 308 -119 367 -145
17 -7 55 -23 85 -34 30 -12 64 -26 75 -31 50 -23 227 -90 250 -94 62 -11 145
55 145 116 0 14 -21 60 -47 102 -27 42 -55 89 -64 104 -91 152 -385 622 -401
639 -28 30 -66 41 -107 31z"/>
<path d="M2084 7641 c-45 -28 -69 -93 -52 -143 10 -28 24 -40 323 -283 99 -81
200 -164 225 -184 109 -92 187 -152 218 -167 43 -20 93 -5 126 39 54 73 46
110 -41 179 -36 28 -75 60 -87 70 -11 10 -66 54 -121 99 -55 45 -120 98 -145
119 -25 21 -72 59 -105 86 -33 26 -95 77 -138 112 -73 59 -129 92 -159 92 -7
0 -27 -9 -44 -19z"/>
<path d="M8344 7522 c-26 -14 -151 -107 -409 -304 -27 -21 -55 -42 -60 -46 -6
-4 -37 -28 -70 -53 -33 -25 -88 -64 -122 -88 -85 -57 -112 -112 -80 -168 23
-41 230 -348 250 -370 57 -63 176 -24 193 64 4 23 -11 52 -90 170 l-95 141 94
71 95 71 52 -77 c88 -128 113 -157 142 -171 38 -19 92 -7 123 26 21 23 24 34
21 78 -4 44 -15 66 -82 162 l-77 112 82 60 c46 33 85 60 89 60 4 0 42 -50 85
-111 43 -61 90 -119 103 -130 30 -23 72 -24 112 -4 66 34 77 95 31 166 -31 48
-229 313 -255 342 -21 22 -91 22 -132 -1z"/>
<path d="M1780 6739 c-164 -20 -280 -100 -378 -259 -32 -53 -45 -88 -56 -147
-13 -77 -14 -176 -2 -241 36 -190 225 -369 446 -421 104 -25 227 -22 322 8
164 53 298 214 334 405 20 104 18 165 -10 284 -26 111 -171 255 -330 328 -87
39 -218 57 -326 43z m168 -249 c85 -15 161 -58 231 -130 160 -166 34 -448
-207 -465 -150 -10 -363 115 -404 236 -42 123 21 282 134 340 36 19 135 38
168 33 8 -2 44 -8 78 -14z"/>
<path d="M8835 6326 c-88 -30 -286 -96 -440 -146 -154 -50 -289 -100 -299
-110 -31 -31 -23 -91 43 -305 64 -206 77 -237 111 -255 45 -24 78 -20 115 14
41 39 42 49 16 136 -11 36 -31 105 -46 153 -25 86 -26 107 -2 107 7 0 73 20
147 44 74 24 164 53 200 64 483 151 463 140 457 235 -3 46 -9 63 -29 84 -44
44 -91 40 -273 -21z"/>
<path d="M4755 5784 c-5 -1 -27 -5 -49 -9 -45 -8 -124 -76 -163 -142 -22 -38
-29 -43 -61 -44 -21 0 -44 -2 -52 -4 -8 -1 -35 -6 -60 -10 -318 -48 -833 -313
-1022 -526 -173 -195 -313 -534 -399 -964 -5 -27 -12 -63 -14 -80 -3 -16 -7
-41 -10 -55 -6 -32 -12 -73 -20 -130 -3 -25 -8 -52 -10 -60 -2 -8 -7 -49 -10
-90 -4 -41 -8 -82 -10 -90 -2 -8 -6 -55 -9 -105 -4 -49 -9 -110 -12 -135 -13
-115 -12 -382 2 -443 19 -79 38 -98 101 -102 64 -5 179 -15 223 -20 19 -2 67
-7 105 -10 39 -4 81 -8 95 -10 14 -2 57 -7 95 -10 39 -3 81 -8 95 -10 14 -3
57 -7 95 -10 39 -4 77 -8 85 -10 8 -2 44 -7 80 -10 73 -7 110 -15 225 -50 44
-13 121 -36 170 -51 50 -14 132 -46 183 -70 50 -23 147 -64 215 -89 67 -25
131 -50 142 -55 95 -45 689 -275 735 -285 8 -2 40 -10 70 -18 76 -20 219 -15
291 10 101 34 168 84 323 237 215 212 366 329 596 463 125 72 207 106 327 134
113 27 113 27 213 39 47 6 99 13 115 16 32 4 296 13 535 17 113 2 152 7 177
20 55 29 56 82 0 115 -18 11 -95 52 -172 92 -77 40 -176 92 -220 115 -82 43
-177 93 -485 253 -96 50 -183 97 -193 105 -12 8 -26 44 -38 103 -74 335 -216
774 -302 934 -163 302 -481 591 -842 764 -139 67 -195 84 -360 112 -49 8 -101
17 -115 19 -55 11 -202 19 -328 20 l-133 0 -53 51 c-48 46 -123 85 -151 78z
m650 -273 c22 -10 52 -29 66 -43 14 -13 39 -34 55 -47 166 -130 451 -480 504
-619 21 -55 49 -184 56 -257 3 -27 7 -61 9 -75 7 -43 17 -229 20 -364 3 -212
-27 -306 -100 -306 -59 0 -87 57 -85 170 8 359 -2 548 -40 714 -52 231 -193
434 -434 621 -103 80 -155 129 -161 152 -16 66 32 90 110 54z m-597 -71 c17
-16 20 -25 12 -40 -13 -25 -90 -89 -231 -193 -64 -47 -145 -114 -179 -149 -70
-71 -191 -233 -242 -323 -30 -54 -97 -203 -103 -230 -1 -5 -9 -35 -19 -66 -9
-31 -18 -65 -20 -75 -32 -155 -38 -186 -51 -284 -2 -14 -7 -61 -10 -105 -4
-44 -9 -93 -11 -110 -2 -16 -6 -192 -9 -390 -2 -198 -6 -378 -9 -399 -12 -90
-43 -136 -91 -136 -77 0 -100 132 -81 470 3 63 8 161 11 217 4 95 7 152 21
323 15 200 21 262 34 340 5 30 12 71 15 90 7 41 33 136 45 165 4 11 18 45 29
75 78 199 288 478 452 601 25 19 97 73 160 120 63 47 128 93 144 102 43 23
106 22 133 -3z m2017 -1694 c87 -21 113 -65 68 -118 -23 -26 -56 -30 -296 -33
-122 -2 -249 -6 -282 -9 -33 -4 -85 -8 -115 -11 -65 -6 -124 -13 -240 -30 -14
-2 -43 -6 -65 -10 -23 -3 -52 -8 -65 -10 -14 -3 -54 -10 -90 -16 -163 -27
-433 -108 -585 -174 -16 -7 -59 -25 -95 -40 -81 -34 -318 -152 -388 -194 -29
-17 -55 -31 -57 -31 -3 0 -34 -18 -70 -40 -36 -22 -68 -40 -71 -40 -2 0 -10
-5 -17 -10 -7 -6 -52 -36 -102 -66 -49 -31 -102 -67 -117 -82 -36 -34 -121
-38 -144 -8 -43 59 0 107 268 298 237 169 564 330 868 426 120 39 344 100 390
107 19 3 42 8 50 10 8 2 33 6 55 10 22 3 67 10 100 15 33 5 78 12 100 15 22 2
49 6 60 9 11 2 49 7 85 11 36 3 79 8 95 10 17 2 70 7 120 10 49 4 91 8 92 9 2
2 90 3 195 4 135 1 211 -3 253 -12z"/>
<path d="M8326 5150 c-36 -11 -82 -55 -94 -89 -4 -14 -8 -123 -7 -241 1 -191
3 -219 20 -247 18 -31 52 -53 81 -53 26 0 78 29 91 50 13 20 29 177 32 312 l1
37 243 -6 c133 -3 320 -6 414 -7 l173 -1 32 32 c27 27 31 39 31 80 0 101 -38
125 -203 129 -481 10 -789 11 -814 4z"/>
<path d="M1606 5123 c-1 -1 -82 -4 -181 -7 -99 -2 -190 -5 -202 -5 -12 -1 -35
-12 -51 -26 -57 -48 -50 -150 11 -182 28 -14 80 -16 428 -16 443 0 438 1 444
-68 2 -34 -20 -111 -48 -166 -19 -35 -8 -64 35 -96 57 -42 141 -8 180 73 31
63 38 244 13 320 -23 68 -72 122 -138 151 -49 22 -64 23 -270 24 -120 0 -219
-1 -221 -2z"/>
<path d="M10167 4773 c-1 0 -60 -3 -130 -6 -71 -3 -130 -7 -132 -9 -2 -2 -7
-30 -10 -63 -4 -33 -9 -69 -11 -80 -3 -11 -7 -38 -10 -60 -11 -89 -66 -357
-96 -465 -11 -41 -21 -82 -23 -90 -2 -8 -22 -73 -45 -145 -139 -432 -342 -849
-603 -1232 -82 -122 -253 -343 -337 -437 -241 -270 -487 -497 -740 -684 -30
-23 -59 -45 -65 -49 -54 -43 -276 -185 -415 -266 -125 -72 -427 -217 -570
-275 -266 -106 -597 -205 -825 -246 -29 -6 -52 -10 -105 -21 -14 -2 -38 -7
-55 -9 -16 -2 -52 -8 -80 -12 -74 -11 -75 -11 -145 -18 -212 -23 -324 -29
-555 -28 -121 1 -245 3 -275 6 -30 3 -89 8 -130 11 -67 6 -372 48 -426 59
-376 77 -726 185 -971 297 -35 16 -66 29 -69 29 -9 0 -318 157 -372 189 -29
17 -55 31 -58 31 -3 0 -25 13 -49 30 -24 16 -46 30 -49 30 -21 0 -446 303
-541 385 -16 14 -41 36 -55 47 -465 389 -897 945 -1174 1511 l-67 137 40 43
c181 189 214 468 84 704 -59 107 -215 231 -333 264 -70 19 -70 19 -157 24
-247 12 -473 -128 -566 -350 -37 -89 -47 -154 -43 -268 5 -137 35 -219 120
-335 109 -147 270 -223 489 -231 12 -1 26 -20 43 -58 34 -77 133 -272 179
-353 21 -36 46 -81 57 -100 93 -161 281 -432 417 -600 146 -179 206 -246 371
-410 458 -458 953 -797 1536 -1055 474 -210 1034 -358 1514 -400 41 -4 89 -9
105 -12 56 -8 669 -11 765 -2 182 16 226 20 325 34 216 30 346 55 545 105 227
57 413 116 640 205 327 128 712 334 1015 543 386 268 773 627 1066 992 163
203 329 444 443 645 31 55 60 107 65 115 73 118 311 659 336 760 2 8 11 35 20
60 45 127 137 479 164 635 6 33 13 71 16 85 13 66 44 295 49 357 l3 41 -59 -1
c-33 -1 -60 -3 -61 -4z"/>
</g>
</svg>
